# xmcd CD database file
#
# Track frame offsets:
#	150
#	26432
#	64494
#	87084
#	122698
#	153227
#	186714
#
# Disc length: 2874 seconds
#
# Revision: 0
# Processed by: cddbd v1.5.2PL0 Copyright (c) Steve Scherf et al.
# Submitted via: CDex 1.79
#
DISCID=5a0b3807
DTITLE=Steve Lehman Quintet - ArtificialLight
DYEAR=2013
DGENRE=Jazz
TTITLE0=Fumba Rebel
TTITLE1=Alloy
TTITLE2=Estelle Teams
TTITLE3=Freestyle
TTITLE4=Post-Modern Pharoahs
TTITLE5=Cloak and Dagger
TTITLE6=Digital Ambush
EXTD=YEAR: 2013
EXTT0=
EXTT1=
EXTT2=
EXTT3=
EXTT4=
EXTT5=
EXTT6=
PLAYORDER=
